<svg id="program-icon-final" xmlns="http://www.w3.org/2000/svg" xmlns:xlink="http://www.w3.org/1999/xlink" viewBox="0 0 500 500" shape-rendering="geometricPrecision" text-rendering="geometricPrecision" style="background-color:transparent"><style><![CDATA[#program-icon-final-console_to {animation: program-icon-final-console_to__to 3000ms linear 1 normal forwards}@keyframes program-icon-final-console_to__to { 0% {transform: translate(169.115984px,121.275123px)} 16.666667% {transform: translate(169.115984px,121.275123px)} 50% {transform: translate(169.005001px,144.645008px)} 100% {transform: translate(169.005001px,144.645008px)}} #program-icon-final-console {animation: program-icon-final-console_c_o 3000ms linear 1 normal forwards}@keyframes program-icon-final-console_c_o { 0% {opacity: 0} 16.666667% {opacity: 0} 50% {opacity: 1} 100% {opacity: 1}} #program-icon-final-g4_to {animation: program-icon-final-g4_to__to 3000ms linear 1 normal forwards}@keyframes program-icon-final-g4_to__to { 0% {transform: translate(278.944992px,56.896281px)} 26.666667% {transform: translate(278.944992px,104.529995px)} 100% {transform: translate(278.944992px,104.529995px)}} #program-icon-final-g4 {animation: program-icon-final-g4_c_o 3000ms linear 1 normal forwards}@keyframes program-icon-final-g4_c_o { 0% {opacity: 0} 26.666667% {opacity: 1} 100% {opacity: 1}} #program-icon-final-g5_to {animation: program-icon-final-g5_to__to 3000ms linear 1 normal forwards}@keyframes program-icon-final-g5_to__to { 0% {transform: translate(383.77px,194.470001px)} 10% {transform: translate(383.77px,194.470001px)} 33.333333% {transform: translate(337px,194.470001px)} 100% {transform: translate(337px,194.470001px)}} #program-icon-final-g5 {animation: program-icon-final-g5_c_o 3000ms linear 1 normal forwards}@keyframes program-icon-final-g5_c_o { 0% {opacity: 0} 10% {opacity: 0} 33.333333% {opacity: 1} 100% {opacity: 1}} #program-icon-final-search_to {animation: program-icon-final-search_to__to 3000ms linear 1 normal forwards}@keyframes program-icon-final-search_to__to { 0% {transform: translate(59.505835px,104.044998px)} 26.666667% {transform: translate(59.505835px,104.044998px)} 50% {transform: translate(114.845005px,104.044998px)} 100% {transform: translate(114.845005px,104.044998px)}} #program-icon-final-search {animation: program-icon-final-search_c_o 3000ms linear 1 normal forwards}@keyframes program-icon-final-search_c_o { 0% {opacity: 0} 26.666667% {opacity: 0} 50% {opacity: 1} 100% {opacity: 1}} #program-icon-final-hand-total_tr {animation: program-icon-final-hand-total_tr__tr 3000ms linear 1 normal forwards}@keyframes program-icon-final-hand-total_tr__tr { 0% {transform: translate(245.7px,246.8px) rotate(8.969786deg)} 10% {transform: translate(245.7px,246.8px) rotate(-0.408866deg)} 20% {transform: translate(245.7px,246.8px) rotate(8.969786deg)} 31% {transform: translate(245.7px,246.8px) rotate(-0.408866deg)} 40% {transform: translate(245.7px,246.8px) rotate(8.969786deg)} 100% {transform: translate(245.7px,246.8px) rotate(8.969786deg)}}]]></style><defs><filter id="program-icon-final-background-filter" x="-400%" width="600%" y="-400%" height="600%"><feComponentTransfer id="program-icon-final-background-filter-opacity-0" result="result"><feFuncA id="program-icon-final-background-filter-opacity-0-A" type="table" tableValues="0 1"/></feComponentTransfer></filter><radialGradient id="program-icon-final-path14-fill" cx="0" cy="0" r="12.93" spreadMethod="pad" gradientUnits="userSpaceOnUse" gradientTransform="matrix(1 0 0 1 277.52 192.38)"><stop id="program-icon-final-path14-fill-0" offset="0%" stop-color="rgb(255,200,175)"/><stop id="program-icon-final-path14-fill-1" offset="100%" stop-color="rgb(255,187,156)"/></radialGradient><radialGradient id="program-icon-final-path15-fill" cx="0" cy="0" r="20.38" spreadMethod="pad" gradientUnits="userSpaceOnUse" gradientTransform="matrix(0.9776 -0.210472 0.210472 0.9776 270.036718 168.992173)"><stop id="program-icon-final-path15-fill-0" offset="0%" stop-color="rgb(255,200,175)"/><stop id="program-icon-final-path15-fill-1" offset="100%" stop-color="rgb(255,187,156)"/></radialGradient><radialGradient id="program-icon-final-polygon1-fill" cx="0" cy="0" r="8.13" spreadMethod="pad" gradientUnits="userSpaceOnUse" gradientTransform="matrix(1 0 0 1 249.96 387.55)"><stop id="program-icon-final-polygon1-fill-0" offset="0%" stop-color="rgb(255,200,175)"/><stop id="program-icon-final-polygon1-fill-1" offset="100%" stop-color="rgb(255,187,156)"/></radialGradient><radialGradient id="program-icon-final-polygon2-fill" cx="0" cy="0" r="7.4" spreadMethod="pad" gradientUnits="userSpaceOnUse" gradientTransform="matrix(1 0 0 1 198.5 389.59)"><stop id="program-icon-final-polygon2-fill-0" offset="0%" stop-color="rgb(255,200,175)"/><stop id="program-icon-final-polygon2-fill-1" offset="100%" stop-color="rgb(255,187,156)"/></radialGradient><radialGradient id="program-icon-final-path36-fill" cx="0" cy="0" r="41.44" spreadMethod="pad" gradientUnits="userSpaceOnUse" gradientTransform="matrix(1 0 0 1 243.56 250.7)"><stop id="program-icon-final-path36-fill-0" offset="0%" stop-color="rgb(255,200,175)"/><stop id="program-icon-final-path36-fill-1" offset="100%" stop-color="rgb(255,187,156)"/></radialGradient><radialGradient id="program-icon-final-path37-fill" cx="0" cy="0" r="41.44" spreadMethod="pad" gradientUnits="userSpaceOnUse" gradientTransform="matrix(1 0 0 1 243.56 250.7)"><stop id="program-icon-final-path37-fill-0" offset="0%" stop-color="rgb(255,200,175)"/><stop id="program-icon-final-path37-fill-1" offset="100%" stop-color="rgb(255,187,156)"/></radialGradient><linearGradient id="program-icon-final-path45-fill" x1="382.0634" y1="299.1898" x2="382.124" y2="362.2608" spreadMethod="pad" gradientUnits="userSpaceOnUse"><stop id="program-icon-final-path45-fill-0" offset="0%" stop-color="rgb(96,107,241)"/><stop id="program-icon-final-path45-fill-1" offset="100%" stop-color="rgb(88,71,159)"/></linearGradient><linearGradient id="program-icon-final-path47-fill" x1="334.9908" y1="306.3038" x2="361.4229" y2="363.6319" spreadMethod="pad" gradientUnits="userSpaceOnUse"><stop id="program-icon-final-path47-fill-0" offset="0%" stop-color="rgb(96,107,241)"/><stop id="program-icon-final-path47-fill-1" offset="100%" stop-color="rgb(88,71,159)"/></linearGradient><linearGradient id="program-icon-final-path49-fill" x1="354.554518" y1="285.112336" x2="373.753975" y2="361.055753" spreadMethod="pad" gradientUnits="userSpaceOnUse"><stop id="program-icon-final-path49-fill-0" offset="0%" stop-color="rgb(96,107,241)"/><stop id="program-icon-final-path49-fill-1" offset="100%" stop-color="rgb(88,71,159)"/></linearGradient></defs><g id="program-icon-final-g1" style="isolation:isolate"><g id="program-icon-final-background" filter="url(#program-icon-final-background-filter)"><path id="program-icon-final-path1" d="M465.68,304.58L449.91,415.29L49,415.29L37.16,330.84C35.836637,321.373507,41.073099,312.207642,49.9,308.54L85.48,293.77L85.48,258.38C85.487259,247.946456,93.153467,239.100504,103.48,237.61L111.9,236.38L126,188.59C128.652946,179.691746,136.834687,173.592039,146.12,173.59L290.66,173.59C301.633632,173.600305,310.749144,182.057862,311.58,193L380.42,200.27C390.631104,201.352169,398.56219,209.659717,399.17,219.91L402,267.69L450.65,281.43C460.739752,284.308365,467.156745,294.192156,465.68,304.58Z" transform="matrix(1 0 0 1 -0.473644 5.28)" fill="rgb(218,232,239)" stroke="none" stroke-width="1"/><path id="program-icon-final-path2" d="M73,327.42L85.52,415.29L403.78,415.29L413.18,348.29C414.222476,340.772985,410.065455,333.498198,403.06,330.58L374.82,318.86L374.82,290.74C374.826229,282.468438,368.755801,275.448041,360.57,274.26L353.89,273.26L342.68,235.33C340.588766,228.23933,334.07261,223.376649,326.68,223.39L212,223.39C203.270714,223.393145,196.023999,230.133767,195.39,238.84L140.75,244.61C132.64404,245.470198,126.347166,252.063097,125.86,260.2L123.66,298.11L85,309C76.941678,311.255038,71.806418,319.137663,73,327.42Z" fill="rgb(204,217,226)" stroke="none" stroke-width="1"/><path id="program-icon-final-path3" d="M335.57,382.55C335.575408,373.085396,328.634849,365.050529,319.27,363.68L311.62,362.56L298.78,319.15C296.404083,311.037019,288.953699,305.469609,280.5,305.49L149.18,305.49C139.181188,305.465843,130.874627,313.195316,130.18,323.17L73.32,329.17L85.59,415.29L337,415.29L335.56,414.7Z" fill="rgb(188,206,216)" stroke="none" stroke-width="1"/></g><g id="program-icon-final-objects"><g id="program-icon-final-console_to" transform="translate(169.115984,121.275123)"><g id="program-icon-final-console" transform="translate(-169.005001,-144.645008)" opacity="0"><g id="program-icon-final-g2"><rect id="program-icon-final-rect1" width="97.55" height="91.05" rx="0" ry="0" transform="matrix(1 0 0 1 120.23 99.12)" fill="rgb(17,43,70)" stroke="none" stroke-width="1"/><path id="program-icon-final-path4" d="M196.7,104C196.70405,104.716794,196.27538,105.365263,195.614307,105.642379C194.953235,105.919495,194.190292,105.77054,193.682,105.26512C193.173708,104.759699,193.020432,103.997612,193.293798,103.33498C193.567164,102.672348,194.213194,102.240011,194.93,102.24C195.903652,102.239984,196.694499,103.026363,196.7,104Z" fill="rgb(96,107,241)" stroke="none" stroke-width="1"/><path id="program-icon-final-path5" d="M204.07,104C204.07405,104.716794,203.64538,105.365263,202.984307,105.642379C202.323235,105.919495,201.560292,105.77054,201.052,105.26512C200.543708,104.759699,200.390432,103.997612,200.663798,103.33498C200.937164,102.672348,201.583194,102.240011,202.3,102.24C203.273652,102.239984,204.064499,103.026363,204.07,104Z" fill="rgb(251,209,91)" stroke="none" stroke-width="1"/><path id="program-icon-final-path6" d="M210.91,104.23C210.909989,104.946806,210.477652,105.592836,209.81502,105.866202C209.152388,106.139568,208.390301,105.986292,207.88488,105.478C207.37946,104.969708,207.230505,104.206765,207.507621,103.545693C207.784737,102.88462,208.433206,102.45595,209.15,102.46C209.618519,102.459992,210.067704,102.646793,210.398057,102.979023C210.72841,103.311253,210.912662,103.761489,210.91,104.23Z" fill="rgb(255,133,120)" stroke="none" stroke-width="1"/><rect id="program-icon-final-rect2" width="13.82" height="1.16" rx="0" ry="0" transform="matrix(1 0 0 1 137.58 117.7)" fill="rgb(255,133,120)" stroke="none" stroke-width="1"/><rect id="program-icon-final-rect3" width="13.82" height="1.16" rx="0" ry="0" transform="matrix(1 0 0 1 153.8 117.7)" fill="rgb(251,209,91)" stroke="none" stroke-width="1"/><rect id="program-icon-final-rect4" width="21.43" height="1.16" rx="0" ry="0" transform="matrix(1 0 0 1 141.85 123.96)" fill="rgb(96,107,241)" stroke="none" stroke-width="1"/><rect id="program-icon-final-rect5" width="10.89" height="1.16" rx="0" ry="0" transform="matrix(1 0 0 1 166.82 123.96)" fill="rgb(255,133,120)" stroke="none" stroke-width="1"/><rect id="program-icon-final-rect6" width="9.41" height="1.16" rx="0" ry="0" transform="matrix(1 0 0 1 149.28 130.21)" fill="rgb(251,209,91)" stroke="none" stroke-width="1"/><rect id="program-icon-final-rect7" width="31.22" height="1.16" rx="0" ry="0" transform="matrix(1 0 0 1 164.13 130.21)" fill="rgb(251,209,91)" stroke="none" stroke-width="1"/><rect id="program-icon-final-rect8" width="35.68" height="1.16" rx="0" ry="0" transform="matrix(1 0 0 1 156.59 136.47)" fill="rgb(96,107,241)" stroke="none" stroke-width="1"/><rect id="program-icon-final-rect9" width="10.98" height="1.16" rx="0" ry="0" transform="matrix(1 0 0 1 147.67 142.72)" fill="rgb(255,133,120)" stroke="none" stroke-width="1"/><rect id="program-icon-final-rect10" width="10.98" height="1.16" rx="0" ry="0" transform="matrix(1 0 0 1 163.35 142.72)" fill="rgb(96,107,241)" stroke="none" stroke-width="1"/><rect id="program-icon-final-rect11" width="15.97" height="1.16" rx="0" ry="0" transform="matrix(1 0 0 1 137.58 175.18)" fill="rgb(255,133,120)" stroke="none" stroke-width="1"/><rect id="program-icon-final-rect12" width="15.97" height="1.16" rx="0" ry="0" transform="matrix(1 0 0 1 159.15 175.18)" fill="rgb(251,209,91)" stroke="none" stroke-width="1"/><rect id="program-icon-final-rect13" width="15.97" height="1.16" rx="0" ry="0" transform="matrix(1 0 0 1 180.13 175.18)" fill="rgb(255,133,120)" stroke="none" stroke-width="1"/><rect id="program-icon-final-rect14" width="31.22" height="1.16" rx="0" ry="0" transform="matrix(1 0 0 1 141.85 168.92)" fill="rgb(96,107,241)" stroke="none" stroke-width="1"/><rect id="program-icon-final-rect15" width="31.22" height="1.16" rx="0" ry="0" transform="matrix(1 0 0 1 177.94 168.92)" fill="rgb(255,133,120)" stroke="none" stroke-width="1"/><rect id="program-icon-final-rect16" width="30.98" height="1.16" rx="0" ry="0" transform="matrix(1 0 0 1 149.28 162.67)" fill="rgb(255,133,120)" stroke="none" stroke-width="1"/><rect id="program-icon-final-rect17" width="8.62" height="1.16" rx="0" ry="0" transform="matrix(1 0 0 1 182.96 162.67)" fill="rgb(251,209,91)" stroke="none" stroke-width="1"/><rect id="program-icon-final-rect18" width="11.66" height="1.16" rx="0" ry="0" transform="matrix(1 0 0 1 147.26 156.41)" fill="rgb(251,209,91)" stroke="none" stroke-width="1"/><rect id="program-icon-final-rect19" width="11.66" height="1.16" rx="0" ry="0" transform="matrix(1 0 0 1 165.12 156.41)" fill="rgb(96,107,241)" stroke="none" stroke-width="1"/><rect id="program-icon-final-rect20" width="11.66" height="1.16" rx="0" ry="0" transform="matrix(1 0 0 1 184.28 156.41)" fill="rgb(255,133,120)" stroke="none" stroke-width="1"/><rect id="program-icon-final-rect21" width="16.35" height="1.16" rx="0" ry="0" transform="matrix(1 0 0 1 160.78 150.16)" fill="rgb(251,209,91)" stroke="none" stroke-width="1"/><rect id="program-icon-final-rect22" width="16.35" height="1.16" rx="0" ry="0" transform="matrix(1 0 0 1 138.26 150.16)" fill="rgb(96,107,241)" stroke="none" stroke-width="1"/><rect id="program-icon-final-rect23" width="1.49" height="1.49" rx="0" ry="0" transform="matrix(1 0 0 1 128.54 116.58)" fill="rgb(249,251,252)" stroke="none" stroke-width="1"/><path id="program-icon-final-path7" d="M130,171.13L128.52,171.13L128.52,168.13L130,168.13ZM130,163.55L128.52,163.55L128.52,160.55L130,160.55ZM130,155.97L128.52,155.97L128.52,152.97L130,152.97ZM130,148.39L128.52,148.39L128.52,145.39L130,145.39ZM130,140.81L128.52,140.81L128.52,137.81L130,137.81ZM130,133.23L128.52,133.23L128.52,130.23L130,130.23ZM130,125.65L128.52,125.65L128.52,122.65L130,122.65Z" fill="rgb(249,251,252)" stroke="none" stroke-width="1"/><rect id="program-icon-final-rect24" width="1.49" height="1.49" rx="0" ry="0" transform="matrix(1 0 0 1 128.54 175.67)" fill="rgb(249,251,252)" stroke="none" stroke-width="1"/></g><g id="program-icon-final-g3" style="mix-blend-mode:screen"><rect id="program-icon-final-rect25" width="97.55" height="9.63" rx="0" ry="0" transform="matrix(1 0 0 1 120.23 99.12)" fill="rgb(29,38,45)" stroke="none" stroke-width="1"/></g></g></g><g id="program-icon-final-g4_to" transform="translate(278.944992,56.896281)"><g id="program-icon-final-g4" transform="translate(-278.944992,-104.529995)" opacity="0"><rect id="program-icon-final-rect26" width="80.33" height="49.52" rx="0" ry="0" transform="matrix(1 0 0 1 238.78 79.77)" fill="rgb(255,133,120)" stroke="none" stroke-width="1"/><path id="program-icon-final-path8" d="M270,99.69L260.45,103.77L270,107.77L268.75,110.66L257.29,105.54L257.29,102L268.75,96.85Z" fill="rgb(249,251,252)" stroke="none" stroke-width="1"/><path id="program-icon-final-path9" d="M284.06,90.25L277.12,116.9L273.82,116.12L280.82,89.51Z" fill="rgb(249,251,252)" stroke="none" stroke-width="1"/><path id="program-icon-final-path10" d="M300.65,102L300.65,105.55L289.18,110.67L287.93,107.78L297.46,103.78L287.93,99.7L289.18,96.87Z" fill="rgb(249,251,252)" stroke="none" stroke-width="1"/></g></g><g id="program-icon-final-g5_to" transform="translate(383.77,194.470001)"><g id="program-icon-final-g5" transform="translate(-339.225006,-191.999993)" opacity="0"><rect id="program-icon-final-rect27" width="45.75" height="32.6" rx="0" ry="0" transform="matrix(1 0 0 1 316.35 175.7)" fill="rgb(96,107,241)" stroke="none" stroke-width="1"/><path id="program-icon-final-path11" d="M335.49,182.74C334.01,182.74,333.49,183.13,333.49,184.23L333.49,189.14C333.49,191.05,332.7,191.64,331.37,192.01C332.7,192.36,333.49,192.95,333.49,194.84L333.49,199.74C333.49,200.84,334.01,201.24,335.49,201.24L335.49,203.39C331.77,203.39,330.72,202.2,330.72,199.72L330.72,195.07C330.72,193.74,330.37,193.23,329.16,193.23L329.16,190.77C330.37,190.77,330.72,190.24,330.72,188.9L330.72,184.26C330.72,181.76,331.72,180.59,335.49,180.59Z" fill="rgb(241,242,242)" stroke="none" stroke-width="1"/><path id="program-icon-final-path12" d="M347.73,184.26L347.73,188.9C347.73,190.24,348.08,190.77,349.32,190.77L349.32,193.23C348.08,193.23,347.73,193.74,347.73,195.07L347.73,199.72C347.73,202.2,346.68,203.39,342.96,203.39L342.96,201.24C344.41,201.24,344.96,200.84,344.96,199.74L344.96,194.84C344.854564,194.180336,345.021944,193.506159,345.423671,192.972409C345.825397,192.43866,346.426922,192.091242,347.09,192.01C345.76,191.64,344.96,191.01,344.96,189.14L344.96,184.23C344.96,183.13,344.47,182.74,342.96,182.74L342.96,180.59C346.68,180.59,347.73,181.76,347.73,184.26Z" fill="rgb(241,242,242)" stroke="none" stroke-width="1"/></g></g><g id="program-icon-final-search_to" transform="translate(59.505835,104.044998)"><g id="program-icon-final-search" transform="translate(-114.845005,-104.044998)" opacity="0"><rect id="program-icon-final-rect28" width="51.33" height="34.33" rx="0" ry="0" transform="matrix(1 0 0 1 89.18 86.88)" fill="rgb(251,209,91)" stroke="none" stroke-width="1"/><path id="program-icon-final-path13" d="M106.17,96.73C103.538592,99.973159,103.682152,104.655077,106.507318,107.730923C109.332483,110.806769,113.985359,111.346879,117.44,109L122.83,114.39C123.058669,114.610981,123.421331,114.610981,123.65,114.39L125.17,112.87C125.281212,112.762591,125.34402,112.614612,125.34402,112.46C125.34402,112.305388,125.281212,112.157409,125.17,112.05L119.78,106.66C122.389091,102.900752,121.51825,97.745926,117.819044,95.052382C114.119838,92.358838,108.946616,93.112733,106.17,96.75ZM117,106.18C115.29134,107.915054,112.703462,108.445297,110.450126,107.522035C108.196791,106.598774,106.724968,104.405145,106.724968,101.97C106.724968,99.534855,108.196791,97.341226,110.450126,96.417965C112.703462,95.494703,115.29134,96.024946,117,97.76C119.299957,100.095485,119.299957,103.844515,117,106.18Z" fill="rgb(249,251,252)" stroke="none" stroke-width="1"/></g></g><path id="program-icon-final-path14" d="M289.83,192.92C289.71,194.06,288.16,205.92,275.99,205.92C263.21,205.92,265.35,193.26,265.35,193.26L265.35,193.18C266.665376,192.909327,268.01489,192.845225,269.35,192.99L269.35,186.99L283.86,178.87L284.39,178.87L284.39,192.87C286.200259,192.700281,288.023167,192.717036,289.83,192.92Z" fill="url(#program-icon-final-path14-fill)" stroke="none" stroke-width="1"/><path id="program-icon-final-path15" d="M282.78,152.12C284.967607,154.347258,286.47933,157.1488,287.14,160.2C288.53,166.35,287.22,172.85,285.44,178.77C285.181736,179.799442,284.748791,180.776951,284.16,181.66C283.692107,182.254642,283.158747,182.794711,282.57,183.27Q278.7,186.63,274.84,190.02C273.09,191.54,262.35,192.82,260.3,191.35C252.4,185.7,250.87,169.35,252.46,160.96C255.08,147.08,272.92,142.12,282.78,152.12Z" transform="matrix(1 0 0 1 0 -1)" fill="url(#program-icon-final-path15-fill)" stroke="none" stroke-width="1"/><path id="program-icon-final-path16" d="M278.34,169.88C278.45,168.55,279.82,167.08,281.2,167.95C282.58,168.82,282.29,171.22,281.7,172.53C281.24,173.53,279.7,174.67,278.63,173.72C277.75,172.92,279.12,171.98,279.17,171.25C279.22,170.52,277.89,170.13,278.43,169.42" fill="rgb(247,176,148)" stroke="none" stroke-width="1"/><path id="program-icon-final-path17" d="M278.59,176.06C280.537565,176.371427,282.42998,175.248593,283.09,173.39C283.47716,171.99017,283.662364,170.542211,283.64,169.09C284.128312,170.620246,284.251602,172.243558,284,173.83C283.62,176.75,282.6,179.54,280.31,179.57C278.02,179.6,278.59,176.06,278.59,176.06Z" fill="rgb(247,176,148)" stroke="none" stroke-width="1"/><path id="program-icon-final-path18" d="M276.83,174C276.780463,174.027002,276.726097,174.043991,276.67,174.05C275.77,174.17,275.42,173.1,275.29,172.42C275.058406,170.840852,274.951409,169.245932,274.97,167.65C274.999431,167.221705,274.952018,166.791599,274.83,166.38C274.33,165.23,272.99,164.49,272.58,163.3C272.11,161.92,273.45,160.55,272.92,159.04C272.1,156.73,269.14,156.2,266.99,156.22C263.787394,156.371985,260.59949,156.749588,257.45,157.35C254.1,157.87,249.81,158.35,246.85,156.24C243.29,153.69,241.85,147.02,244.46,143.37C246.097939,141.411902,248.51717,140.277315,251.07,140.27C253.62,140.21,255.78,141.73,258.12,142.5C259.98,143.11,261.79,141.32,263.53,140.98C265.72,140.54,266.65,142.93,268.59,142.98C270.53,143.03,272.32,141.57,274.15,141.23C277.8,140.57,277.59,144.23,280.04,145.49C281.56,146.27,283.53,145.79,285.04,146.59C286.21,147.19,286.37,148.24,286.63,149.44C286.757358,150.520183,286.947682,151.592007,287.2,152.65C287.604313,153.456336,288.157348,154.179013,288.83,154.78C289.434041,155.550173,289.891619,156.424656,290.18,157.36C290.854644,159.47679,291.086119,161.709838,290.86,163.92C290.400587,167.617974,289.47663,171.243245,288.11,174.71C287.31,176.96,287.02,179.31,285.79,181.44C285.46,182.01,283.99,183.68,283.45,182.44C283.353535,182.164161,283.326069,181.868899,283.37,181.58C283.53,179.25,285.69,164.29,280.03,166.09C278.878729,166.503265,277.97983,167.420584,277.59,168.58C277.130383,169.90864,276.959912,171.320139,277.09,172.72C277.09,172.93,277.09,173.13,277.09,173.34C277.129475,173.590876,277.029975,173.843453,276.83,174Z" fill="rgb(61,61,122)" stroke="none" stroke-width="1"/><path id="program-icon-final-path19" d="M269.34,191.6C275.79,190.6,280.04,185.47,280.04,185.47C278.797961,190.624814,274.25995,194.310924,268.96,194.47Z" fill="rgb(247,176,148)" stroke="none" stroke-width="1"/><path id="program-icon-final-path20" d="M281.55,308.57L287.55,308.57C288.450224,308.57,289.18,309.299776,289.18,310.2L289.18,398.73L279.95,398.73L279.95,310.2C279.949849,309.311363,280.661513,308.586355,281.55,308.57Z" transform="matrix(-1 0 0 -1 569.07 707.29)" fill="rgb(10,32,51)" stroke="none" stroke-width="1"/><path id="program-icon-final-path21" d="M265.48,309.84L303.59,309.84C305.263516,309.84,306.868489,310.504802,308.051844,311.688156C309.235198,312.871511,309.9,314.476484,309.9,316.15L309.9,317.54L259.17,317.54L259.17,316.15C259.17,314.476484,259.834802,312.871511,261.018156,311.688156C262.201511,310.504802,263.806484,309.84,265.48,309.84Z" transform="matrix(-1 0 0 -1 569.07 627.37)" fill="rgb(48,71,94)" stroke="none" stroke-width="1"/><path id="program-icon-final-path22" d="M281.55,388.23L287.55,388.23C288.450224,388.23,289.18,388.959776,289.18,389.86L289.18,410.37L279.95,410.37L279.95,389.85C279.955278,388.965256,280.665389,388.246268,281.55,388.23Z" transform="matrix(-1 0 0 -1 569.07 798.59)" fill="rgb(10,32,51)" stroke="none" stroke-width="1"/><path id="program-icon-final-path23" d="M236.66,405C236.66,407.184096,237.975668,409.153132,239.993509,409.988949C242.011351,410.824767,244.333987,410.362766,245.878377,408.818377C247.422766,407.273987,247.884767,404.951351,247.048949,402.933509C246.213132,400.915668,244.244096,399.6,242.06,399.6C239.077662,399.6,236.66,402.017662,236.66,405Z" fill="rgb(10,32,51)" stroke="none" stroke-width="1"/><path id="program-icon-final-path24" d="M321.62,405C321.62,407.184096,322.935668,409.153132,324.953509,409.988949C326.971351,410.824767,329.293987,410.362766,330.838377,408.818377C332.382766,407.273987,332.844767,404.951351,332.008949,402.933509C331.173132,400.915668,329.204096,399.6,327.02,399.6C324.037662,399.6,321.62,402.017662,321.62,405Z" fill="rgb(10,32,51)" stroke="none" stroke-width="1"/><rect id="program-icon-final-rect29" width="18.56" height="16.22" rx="0" ry="0" transform="matrix(-1 0 0 -1 293.81 397.57)" fill="rgb(48,71,94)" stroke="none" stroke-width="1"/><path id="program-icon-final-path25" d="M236.66,393.75L332.42,393.75L332.42,395.63C332.42,398.805637,329.845637,401.38,326.67,401.38L242.41,401.38C239.234363,401.38,236.66,398.805637,236.66,395.63L236.66,393.75Z" transform="matrix(-1 0 0 -1 569.07 795.14)" fill="rgb(251,209,91)" stroke="none" stroke-width="1"/><rect id="program-icon-final-rect30" width="3.2" height="60.55" rx="0" ry="0" transform="matrix(1 0 0 1 281.34 319.35)" fill="rgb(48,71,94)" stroke="none" stroke-width="1"/><path id="program-icon-final-path26" d="M320.79,244.4C319.728305,244.364171,318.700765,244.777926,317.96015,245.539484C317.219536,246.301041,316.834587,247.339717,316.9,248.4C317.53,259.4,315.2,286.2,304.97,295.34C292.45,306.53,256.97,305.01,256.97,305.01C256.97,305.01,251.11,312.2,262.83,313.79C274.55,315.38,307.56,314.33,315.55,306.87C323.28,299.65,327.87,280.74,324.42,247.87C324.226782,245.984667,322.673918,244.529923,320.78,244.46Z" fill="rgb(251,209,91)" stroke="none" stroke-width="1"/><polygon id="program-icon-final-polygon1" points="254.32,379.9 258.54,389.52 245.62,395.19 241.38,385.54 254.32,379.9" fill="url(#program-icon-final-polygon1-fill)" stroke="none" stroke-width="1"/><path id="program-icon-final-path27" d="M315.28,273C314.48,274.6,257.05,273,251.62,273.53C251.62,273.53,216.47,290.3,211.43,306.01C210.885784,308.018499,210.716288,310.11008,210.93,312.18C212.34,334.29,237.52,387.24,237.52,387.24L241.38,385.54L254.32,379.9L256.16,379.1C256.16,379.1,236.16,319.59,240.16,316.39C244.16,313.19,289.42,305.21,305.16,300.96C320.9,296.71,315.28,273,315.28,273Z" fill="rgb(86,84,140)" stroke="none" stroke-width="1"/><polygon id="program-icon-final-polygon2" points="205.05,382.38 206.06,396.83 191.95,396.83 190.94,382.35 205.05,382.38" fill="url(#program-icon-final-polygon2-fill)" stroke="none" stroke-width="1"/><path id="program-icon-final-path28" d="M251.34,273L250.83,273.23C250.83,273.23,192,281.52,182.4,298C176.16,308.74,188.22,387.19,188.22,387.19L209.04,387.24C209.04,387.24,205.93,321.89,206.97,318.24C208.13,314.09,210.13,312.59,210.97,312.16C210.756288,310.09008,210.925784,307.998499,211.47,305.99C216.47,290.28,251.66,273.51,251.66,273.51C251.503474,273.37691,251.391742,273.198837,251.34,273Z" fill="rgb(61,61,122)" stroke="none" stroke-width="1"/><path id="program-icon-final-path29" d="M308.17,218.66L304.23,219.2C303.523959,226.352764,302.418904,233.460504,300.92,240.49L251.76,259.15L251.09,262.71L250.48,262.71C250.48,263.45,250.48,264.17,250.53,264.84C250.64,268.94,250.91,271.9,251.34,273.08C251.385341,273.271579,251.486223,273.445513,251.63,273.58C252.97,274.67,270.35,272.58,289.15,279.46C305.45,285.46,314.59,291.98,315.01,291.1C320.14,280.4,310.81,238.6,308.17,218.66Z" fill="rgb(255,133,120)" stroke="none" stroke-width="1"/><path id="program-icon-final-path30" d="M303,243C301.69,249.3,298.31,261.82,291.66,263.5C282.98,265.71,266.21,265.59,250.49,264.75C250.49,264.08,250.49,263.36,250.44,262.62L251.05,262.62L251.72,259.06L300.88,240.4C302.378904,233.370504,303.483959,226.262764,304.19,219.11C304.896041,211.957236,304.19,219.18,304.19,219.29C304.34,221,305,233.74,303,243Z" fill="rgb(244,103,93)" stroke="none" stroke-width="1"/><path id="program-icon-final-path31" d="M253.77,203C252.89,204.59,251.62,221.69,250.94,238.66L240.89,229.28C245.15,221,253.77,203,253.77,203Z" fill="rgb(244,103,93)" stroke="none" stroke-width="1"/><g id="program-icon-final-hand-total_tr" transform="translate(245.7,246.8) rotate(8.969786)"><g id="program-icon-final-hand-total" transform="translate(-245.699999,-246.799999)"><g id="program-icon-final-hand"><path id="program-icon-final-path32" d="M247.74,251C239.26,252.47,231.46,253.74,231.46,253.74L231.46,254.15C222.01,246.61,207.65,225.25,207.65,225.25C207.65,225.25,211.95,220.09,213.02,218.73C213.18,218.52,236.6,234.64,237.8,234.5C238.1,234.5,239.3,232.36,240.9,229.23L250.95,238.61C250.79,242.61,250.66,246.68,250.58,250.49C249.63,250.68,248.68,250.84,247.74,251Z" fill="rgb(247,176,148)" stroke="none" stroke-width="1"/><path id="program-icon-final-path33" d="M199.17,222.49C199.17,222.49,198.17,224.42,199.97,225.26C202.170983,226.136451,204.520998,226.577928,206.89,226.56C208.42,226.41,209.64,224.27,209.64,224.27L205,219.92L201.3,219.92Z" fill="rgb(247,176,148)" stroke="none" stroke-width="1"/><path id="program-icon-final-path34" d="M198.89,223.44C199.17,222.49,201.8,223,203.43,223.04C204.63,223.04,205.29,222.75,205.66,221.83C206.03,220.91,204.29,219.46,203.95,219.92C203.61,220.38,204.58,221.02,204.6,221.63C204.62,222.24,202.89,222.44,201.54,222.44C200.314407,222.488018,199.092481,222.604868,197.88,222.79Z" fill="rgb(232,152,124)" stroke="none" stroke-width="1"/></g><path id="program-icon-final-path35" d="M212.82,218.58L213.01,218.74C211.94,220.1,207.64,225.26,207.64,225.26L205,223.37C203.004761,224.428368,200.607986,224.39822,198.64,223.29C195.08,221.36,197.28,216.74,197.47,216.2C196.78,216.39,192.47,219.84,191.84,219.48C191.21,219.12,190.67,217.89,195.45,213.18C200.23,208.47,206.69,214.52,206.89,214.52Z" transform="matrix(1 0 0 1 0.000003 0.000013)" fill="rgb(247,176,148)" stroke="none" stroke-width="1"/></g></g><path id="program-icon-final-path36" d="M231.46,253.75L231.25,260.75L205.69,260.75C205.69,260.75,208.23,250.75,215.15,250.75C222.07,250.75,224.73,254.41,224.73,254.41Z" fill="url(#program-icon-final-path36-fill)" stroke="none" stroke-width="1"/><path id="program-icon-final-path37" d="M298.42,249.56L273.42,240.69C271.59,244.1,269.64,246.69,267.71,247.16C264.79,247.93,257.71,249.26,250.6,250.5C249.66,250.68,248.71,250.84,247.77,251.01C239.29,252.48,231.49,253.75,231.49,253.75L231.49,254.16L231.49,254.43L231.3,260.75L231.3,262.35C237.707534,262.103509,244.123748,262.206996,250.52,262.66C265.52,263.73,284.87,264.37,291.28,261.35C294.28,259.93,296.68,255.26,298.57,249.51Z" fill="url(#program-icon-final-path37-fill)" stroke="none" stroke-width="1"/><polygon id="program-icon-final-polygon3" points="273.38,240.69 298.42,249.56 297.29,252.91 272.51,242.28 273.38,240.69" fill="rgb(247,176,148)" stroke="none" stroke-width="1"/><path id="program-icon-final-path38" d="M273.39,240.69C271.56,244.1,269.61,246.69,267.68,247.16C264.76,247.93,257.68,249.26,250.57,250.5C250.65,246.69,250.78,242.66,250.94,238.62C251.62,221.62,252.89,204.55,253.77,202.96C255.2,200.29,259.13,194.49,265.33,193.16L265.33,193.24C265.33,193.24,263.21,205.9,276,205.9C288.17,205.9,289.72,194.06,289.84,192.9C296.1,193.6,305.7,196.74,307.03,209.33C307.3,211.82,307.68,215.01,308.18,218.64L304.23,219.18C304.23,219.18,302.63,236.92,298.53,249.49L298.43,249.54Z" fill="rgb(255,133,120)" stroke="none" stroke-width="1"/><polygon id="program-icon-final-polygon4" style="mix-blend-mode:screen" points="273.13,238.39 283.12,214.19 275.76,239.36 273.13,238.39" fill="rgb(109,75,53)" stroke="none" stroke-width="1"/><path id="program-icon-final-path39" d="M289.83,192.92L284.38,192.92C284.38,192.92,276.62,201.43,271.64,201.43C266.66,201.43,269.34,192.97,269.34,192.97L266.91,192.97C259.923957,192.9757,254.052596,198.219062,253.26,205.16C253.17,205.95,253.08,206.7,253.01,207.39C252.48,212.54,273.34,216.28,273.34,216.28L284.09,215.68L290.61,203L291.91,197.78Z" fill="rgb(255,133,120)" stroke="none" stroke-width="1"/><path id="program-icon-final-path40" d="M224.08,406.26C224.57,408.87,226.37,410.72,228.98,410.26L263.68,403.79C264.557497,403.623344,265.13455,402.777895,264.97,401.9L264.4,398.82C264.4,398.82,227.9,405.21,224.07,406.27Z" fill="rgb(241,242,242)" stroke="none" stroke-width="1"/><path id="program-icon-final-path41" d="M234.41,397.53L235.48,396.59L237.48,394.77C237.83,394.46,238.18,394.15,238.48,393.85L240.24,392.28L241.31,391.28L242.73,390.01C243.01949,389.76822,243.44051,389.76822,243.73,390.01C245.16,391.21,249.73,393.95,258.12,388.78C258.310053,388.66485,258.538702,388.631764,258.753601,388.688316C258.9685,388.744869,259.151245,388.886216,259.26,389.08L264.26,398.78C264.26,398.78,227.76,405.17,223.93,406.23C225.33,405.46,230,401.43,234.41,397.53Z" fill="rgb(61,61,122)" stroke="none" stroke-width="1"/><path id="program-icon-final-path42" d="M169.43,405.92C169.5,408.57,170.98,410.68,173.63,410.62L208.92,409.76C209.349694,409.749521,209.75761,409.568709,210.053945,409.25737C210.350281,408.94603,210.510741,408.529688,210.5,408.1L210.42,404.97C210.42,404.97,173.42,405.46,169.42,405.9Z" fill="rgb(241,242,242)" stroke="none" stroke-width="1"/><path id="program-icon-final-path43" d="M181,398.94L182.2,398.19L184.51,396.72L185.66,395.98L187.66,394.7L188.87,393.91L190.47,392.91C190.792645,392.705504,191.215918,392.764762,191.47,393.05C192.68,394.46,196.8,397.9,205.87,394.13C206.074572,394.039938,206.307721,394.040751,206.51166,394.132238C206.715598,394.223724,206.871237,394.397321,206.94,394.61L210.42,405C210.42,405,173.42,405.49,169.42,405.93C170.79,405.33,176,402.09,181,398.94Z" fill="rgb(61,61,122)" stroke="none" stroke-width="1"/><polygon id="program-icon-final-polygon5" points="144.33,262.35 125.48,212.08 179.14,212.08 197.98,262.35 144.33,262.35" fill="rgb(171,181,186)" stroke="none" stroke-width="1"/><polygon id="program-icon-final-polygon6" points="201.3,262.35 197.98,262.35 179.14,212.08 182.15,212.22 199.58,257.71 201.3,262.35" fill="rgb(132,149,160)" stroke="none" stroke-width="1"/><polyline id="program-icon-final-polyline1" points="128.37,256.91 128.64,256.91 195.92,256.91" fill="none" stroke="none" stroke-width="1"/><path id="program-icon-final-path44" d="M200.26,262.35L235.71,262.35L235.62,259.18L199.53,259.18" fill="rgb(132,149,160)" stroke="none" stroke-width="1"/><rect id="program-icon-final-rect31" width="8.54" height="140.23" rx="0" ry="0" transform="matrix(1 0 0 1 342.77 271.93)" fill="rgb(132,149,160)" stroke="none" stroke-width="1"/><rect id="program-icon-final-rect32" width="8.54" height="140.23" rx="0" ry="0" transform="matrix(1 0 0 1 296.43 271.93)" fill="rgb(171,181,186)" stroke="none" stroke-width="1"/><rect id="program-icon-final-rect33" width="8.54" height="140.23" rx="0" ry="0" transform="matrix(1 0 0 1 147.99 271.93)" fill="rgb(132,149,160)" stroke="none" stroke-width="1"/><rect id="program-icon-final-rect34" width="8.54" height="140.23" rx="0" ry="0" transform="matrix(1 0 0 1 101.66 271.93)" fill="rgb(171,181,186)" stroke="none" stroke-width="1"/><rect id="program-icon-final-rect35" width="274.66" height="10.12" rx="4.15" ry="4.15" transform="matrix(1 0 0 1 89.33 262.35)" fill="rgb(20,27,86)" stroke="none" stroke-width="1"/><polygon id="program-icon-final-polygon7" points="134.44,217.37 135.36,219.81 146.05,219.81 145.13,217.37 134.44,217.37" fill="rgb(132,149,160)" stroke="none" stroke-width="1"/><polygon id="program-icon-final-polygon8" points="240.89,229.24 240.12,230.72 250.94,241.9 250.94,238.62 240.89,229.24" fill="rgb(232,152,124)" stroke="none" stroke-width="1"/><rect id="program-icon-final-rect36" width="431.92" height="9.86" rx="0" ry="0" transform="matrix(1 0 0 1 29.74 410.36)" fill="rgb(165,183,198)" stroke="none" stroke-width="1"/><path id="program-icon-final-path45" d="M393.18,337.21C391.47,345.54,392,359.72,381,362C378,362.6,375.17,360.55,373.45,358.19C371.19,355.11,370.65,348.58,370.69,344.85C370.69,341.85,371.69,338.59,372.05,335.61C372.4,332.39,372.69,329.15,373.05,325.93C374.4,314.33,380.46,304.6,390.72,298.8C391.52,302.61,393.33,305.8,394.92,309.5C395.664199,311.17609,396.285831,312.903957,396.78,314.67C397.62,317.77,396.6,320.9,395.85,323.86C394.73,328.21,394.1,332.78,393.18,337.21Z" fill="url(#program-icon-final-path45-fill)" stroke="none" stroke-width="1"/><path id="program-icon-final-path46" d="M379.11,362.25C379.18,361.55,379.27,360.85,379.36,360.15C380.707277,360.003946,382.003489,359.552496,383.15,358.83C385.014527,357.789329,386.702166,356.45947,388.15,354.89C388.23,354.81,388.09,354.68,388.01,354.75C386.546586,356.062654,384.915734,357.175669,383.16,358.06C382.008814,358.698274,380.76832,359.160088,379.48,359.43C379.6,358.6,379.73,357.77,379.86,356.94C381.229215,356.615267,382.518469,356.016563,383.65,355.18C385.565705,353.944443,387.381299,352.560178,389.08,351.04C386.39,352.99,383.4,355.77,379.99,356.38C380.17,355.38,380.37,354.3,380.58,353.27C380.585705,353.216819,380.585705,353.163181,380.58,353.11C384.52,352.11,387.18,349.03,390.19,346.53C390.24,346.53,390.19,346.41,390.14,346.45C387.14,348.75,384.38,351.38,380.71,352.5C381.03,351.03,381.36,349.56,381.71,348.09C385.182553,346.810872,388.253656,344.633495,390.61,341.78C390.61,341.73,390.61,341.67,390.54,341.71C388.044396,344.168303,385.096954,346.120813,381.86,347.46C382.18,346.01,382.51,344.56,382.86,343.1C384.445156,342.479922,385.979768,341.737691,387.45,340.88C388.873461,339.931568,390.085489,338.699112,391.01,337.26C391.035298,337.241505,391.045222,337.208451,391.034294,337.17908C391.023366,337.14971,390.994249,337.131181,390.963015,337.133721C390.93178,337.136261,390.90604,337.15925,390.9,337.19C388.9,340.05,385.9,340.95,382.99,342.45C383.28,341.09,383.54,339.73,383.78,338.36C387.01,336.58,390.53,334.93,392.36,331.51C392.36,331.51,392.36,331.45,392.31,331.51C390.37,334.65,386.97,336,383.89,337.71C383.89,337.46,383.98,337.22,384.01,336.98C384.21,335.7,384.4,334.43,384.58,333.16C386.43993,332.371969,388.218385,331.404034,389.89,330.27C391.147492,329.589826,392.247955,328.6529,393.12,327.52C393.134291,327.498564,393.13606,327.471132,393.124641,327.448038C393.113222,327.424944,393.09035,327.409697,393.064641,327.408038C393.038932,327.40638,393.014291,327.418564,393,327.44C391.27,329.93,387.47,331.36,384.66,332.61C384.84,331.32,385.02,330.04,385.21,328.75C388.32,326.87,391.99,325.82,393.9,322.43C393.96,322.33,393.81,322.23,393.75,322.33C391.75,325.43,388.27,326.39,385.29,328.15C385.41,327.36,385.52,326.56,385.64,325.76C389.01,324.53,392.92,321.71,394.69,318.67C394.720585,318.60215,394.696795,318.522135,394.63411,318.482016C394.571424,318.441897,394.488801,318.453809,394.44,318.51C392.258043,321.528048,389.230561,323.831719,385.74,325.13C385.94,323.84,386.15,322.56,386.38,321.27C386.402582,321.236321,386.419473,321.199159,386.43,321.16C387.956375,320.57314,389.40143,319.793482,390.73,318.84C392.356665,317.949169,393.748254,316.6844,394.79,315.15C394.89,314.98,394.61,314.81,394.51,314.99C393.01,317.66,389.51,319.45,386.51,320.47C386.6,320,386.68,319.53,386.77,319.06C386.91,318.36,387.05,317.66,387.2,316.97C388.4,316.14,389.93,315.74,391.13,314.86C392.161091,314.075531,393.121434,313.202188,394,312.25C394.09,312.16,393.95,312.02,393.86,312.1C392.682074,313.2706,391.353775,314.279434,389.91,315.1C389.08,315.55,388.13,315.8,387.33,316.28C387.56,315.14,387.8,314,388.02,312.85L388.11,312.85C388.179637,312.870073,388.25452,312.846426,388.3,312.79C389.94,312.38,391.19,310.97,392.3,309.79C392.3,309.79,392.3,309.72,392.3,309.79C391.186044,310.978612,389.81896,311.901394,388.3,312.49L388.3,312.49L388.19,312.49C388.36,311.56,388.53,310.62,388.69,309.69C388.747762,309.685104,388.800931,309.656549,388.836913,309.611098C388.872895,309.565647,388.888488,309.507345,388.88,309.45C389.74267,308.843639,390.546228,308.157267,391.28,307.4C391.33,307.35,391.28,307.26,391.19,307.31C390.456405,307.957615,389.655105,308.524225,388.8,309C389.121875,307.066487,389.338859,305.116968,389.45,303.16C389.45,302.98,389.19,302.98,389.17,303.16C389,305.05,388.73,306.92,388.4,308.78C387.42499,307.637277,386.601523,306.373507,385.95,305.02C385.95,304.986863,385.923137,304.96,385.89,304.96C385.856863,304.96,385.83,304.986863,385.83,305.02C386.135206,305.838795,386.53812,306.617761,387.03,307.34C387.393523,308.040619,387.814992,308.709616,388.29,309.34C388.11,310.34,387.91,311.34,387.71,312.34C385.056145,312.206772,382.945265,310.065489,382.85,307.41C382.85,307.23,382.56,307.23,382.57,307.41C382.65749,308.727223,383.157853,309.983379,384,311C384.927011,311.933914,386.143147,312.526119,387.45,312.68C387.21,313.83,386.96,314.98,386.71,316.13C385.726167,315.49087,384.784242,314.789437,383.89,314.03C382.618882,312.830966,381.42955,311.548092,380.33,310.19C380.21,310.06,380,310.25,380.13,310.38C381.152377,311.692884,382.257984,312.938779,383.44,314.11C384.413345,315.027518,385.47902,315.841855,386.62,316.54L386.62,316.72L386.62,316.72C386.555982,316.794845,386.555982,316.905155,386.62,316.98C386.38,318.08,386.13,319.18,385.9,320.28C385.90566,320.346547,385.90566,320.413453,385.9,320.48C383.34,319.31,379.51,317.27,379.17,314.3C379.17,314.02,378.72,314.1,378.78,314.39C379.54,317.75,383.24,319.24,385.78,321.08C385.53,322.32,385.3,323.57,385.09,324.82C383.424333,324.298885,381.86131,323.493691,380.47,322.44C379.21,321.44,377.42,320.23,376.86,318.67C376.86,318.62,376.76,318.67,376.78,318.67C377.31,320.22,378.91,321.28,380.08,322.34C381.454309,323.711901,383.133218,324.739805,384.98,325.34C384.964673,325.39563,384.964673,325.45437,384.98,325.51C384.85,326.3,384.73,327.1,384.6,327.89C381.49,327.65,377.14,325.29,375.55,322.94C375.55,322.94,375.55,322.94,375.55,322.94C376.675538,324.61241,378.268379,325.916592,380.13,326.69C381.491831,327.499458,382.995225,328.042445,384.56,328.29L383.9,332.71C382.55,332.21,381.12,331.97,379.79,331.43C377.855789,330.613869,376.223611,329.215858,375.12,327.43C375.04,327.32,374.87,327.43,374.94,327.52C377.09,330.94,380.19,331.95,383.82,333.23C383.64,334.44,383.45,335.65,383.25,336.85C380.25,336.28,376.44,334.47,374.93,331.85C374.82,331.66,374.52,331.85,374.63,332.01C375.673128,333.581323,377.154278,334.812137,378.89,335.55C380.205782,336.374979,381.658741,336.957518,383.18,337.27C383.175183,337.309855,383.175183,337.350145,383.18,337.39C382.88,339.13,382.54,340.85,382.18,342.57C378.86,341.74,376.72,339.28,374.3,336.98C374.14,336.82,373.87,337.06,374.04,337.23C376.5,339.64,378.66,342.18,382.04,343.08C381.73,344.48,381.41,345.87,381.04,347.27C378.103192,346.351909,375.508473,344.575658,373.59,342.17C373.46,342,373.23,342.22,373.35,342.39C375.299219,344.883094,377.923129,346.764257,380.91,347.81C380.54,349.3,380.16,350.81,379.78,352.28C376.963405,351.722681,374.47635,350.086177,372.85,347.72C372.85,347.67,372.72,347.72,372.76,347.8C374.34,350.01,376.76,352.56,379.64,352.8L379.27,354.22C379.2,354.51,379.12,354.8,379.04,355.1C376.864799,354.542974,374.824172,353.55327,373.04,352.19C372.99,352.19,372.93,352.19,372.98,352.27C374.71679,353.783436,376.765171,354.89639,378.98,355.53C378.74,356.43,378.48,357.35,378.23,358.29C377.692383,358.010817,377.134066,357.773449,376.56,357.58C375.580882,357.172471,374.659642,356.637883,373.82,355.99C373.73,355.99,373.64,356.06,373.72,356.12C374.448761,356.738861,375.243568,357.275439,376.09,357.72C376.79,357.98,377.46,358.32,378.14,358.62C377.14,362.34,376.25,366.3,376.73,369.87C376.84,370.66,378.17,370.87,378.37,370.03C378.772871,367.453904,379.019986,364.855853,379.11,362.25Z" fill="rgb(116,125,237)" stroke="none" stroke-width="1"/><path id="program-icon-final-path47" d="M358.33,334.83C360.33,343.1,366.74,355.74,357.7,362.43C355.27,364.23,351.81,363.57,349.25,362.16C345.9,360.32,342.66,354.63,341.12,351.23C339.9,348.54,339.42,345.12,338.46,342.23C337.46,339.16,336.31,336.11,335.29,333.03C331.62,322,333,310.61,339.86,301C342.19,304.12,345.19,306.28,348.18,308.93C349.566072,310.131009,350.85973,311.434695,352.05,312.83C354.12,315.29,354.52,318.55,355.05,321.56C355.93,326,357.29,330.43,358.33,334.83Z" fill="url(#program-icon-final-path47-fill)" stroke="none" stroke-width="1"/><path id="program-icon-final-path48" d="M356.13,363.47C355.91,362.8,355.69,362.13,355.48,361.47C356.637411,360.763913,357.621596,359.807066,358.36,358.67C359.599811,356.940152,360.561432,355.027033,361.21,353C361.22933,352.947533,361.202467,352.88933,361.15,352.87C361.097533,352.85067,361.03933,352.877533,361.02,352.93C360.242829,354.736105,359.234396,356.433633,358.02,357.98C357.236286,359.038512,356.307126,359.981138,355.26,360.78C355.01,359.97,354.78,359.16,354.55,358.35C355.653357,357.479719,356.568513,356.39446,357.24,355.16C358.453546,353.246904,359.513533,351.24062,360.41,349.16C361.306467,347.07938,360.41,349.16,360.41,349.16C358.79,352.06,357.25,355.85,354.41,357.84C354.14,356.84,353.87,355.84,353.64,354.77C353.635453,354.716764,353.635453,354.663236,353.64,354.61C356.79,352.05,357.9,348.12,359.58,344.61C359.58,344.55,359.52,344.5,359.49,344.55C357.78,347.9,356.36,351.46,353.49,354.02C353.16,352.55,352.84,351.08,352.49,349.61C355.093756,346.980927,356.956625,343.710556,357.89,340.13C356.664344,343.414426,354.813528,346.430068,352.44,349.01C352.13,347.55,351.81,346.1,351.44,344.64C352.613318,343.411657,353.689863,342.094395,354.66,340.7C355.553017,339.237764,356.135123,337.607187,356.37,335.91C356.37,335.82,356.24,335.81,356.23,335.91C355.63,339.34,353.28,341.42,351.29,344.01C350.97,342.66,350.63,341.32,350.29,340.01C352.47,337.01,354.96,334.01,355.18,330.18C355.18,330.18,355.13,330.13,355.12,330.18C354.69,333.85,352.18,336.5,350.12,339.35C350.06,339.12,350,338.88,349.93,338.64C349.57,337.4,349.2,336.17,348.83,334.94C350.179062,333.4419,351.38124,331.817788,352.42,330.09C353.276575,328.939411,353.879805,327.620484,354.19,326.22C354.19,326.18134,354.15866,326.15,354.12,326.15C354.08134,326.15,354.05,326.18134,354.05,326.22C353.53,329.22,350.69,332.11,348.67,334.43C348.29,333.19,347.91,331.94,347.54,330.7C349.54,327.7,352.45,325.19,352.75,321.3C352.75,321.250294,352.709706,321.21,352.66,321.21C352.610294,321.21,352.57,321.250294,352.57,321.3C352.08,324.96,349.32,327.3,347.36,330.15L346.67,327.84C349.2,325.3,351.56,321.09,351.88,317.59C351.88,317.507157,351.812843,317.44,351.73,317.44C351.647157,317.44,351.58,317.507157,351.58,317.59C350.879381,321.246618,349.107695,324.612474,346.49,327.26C346.13,326.01,345.78,324.76,345.44,323.5C345.450199,323.457267,345.450199,323.412733,345.44,323.37C346.576091,322.194116,347.560419,320.880558,348.37,319.46C349.459516,317.961637,350.182221,316.228514,350.48,314.4C350.48,314.19,350.18,314.17,350.16,314.4C349.93,317.4,347.47,320.57,345.24,322.73C345.12,322.27,345,321.81,344.89,321.35L344.38,319.27C345.12,318.01,346.38,317,347.06,315.7C347.664501,314.553192,348.166454,313.355197,348.56,312.12C348.57933,312.067533,348.552467,312.00933,348.5,311.99C348.447533,311.97067,348.38933,311.997533,348.37,312.05C347.803161,313.618997,347.029682,315.105424,346.07,316.47C345.51,317.22,344.76,317.85,344.23,318.63C343.96,317.5,343.69,316.36,343.41,315.23L343.41,315.23L343.41,315.23C343.481952,315.214491,343.539571,315.160713,343.56,315.09C344.87,314.03,345.41,312.23,345.9,310.68C345.394627,312.233886,344.543253,313.652843,343.41,314.83L343.41,314.83L343.29,314.83C343.06,313.91,342.82,312.99,342.57,312.08C342.620793,312.051043,342.657214,312.002221,342.6705,311.945283C342.683785,311.888345,342.672732,311.828446,342.64,311.78C343.161271,310.864258,343.599681,309.903773,343.95,308.91C343.95,308.84,343.87,308.79,343.84,308.91C343.440595,309.800767,342.951398,310.648485,342.38,311.44C341.851489,309.556114,341.227346,307.700375,340.51,305.88C340.44,305.71,340.19,305.82,340.25,305.99C340.89,307.78,341.43,309.59,341.92,311.41C340.552395,310.788944,339.2716,309.992229,338.11,309.04C338.11,308.99,337.97,309.04,338.02,309.12C338.640783,309.736015,339.332253,310.276436,340.08,310.73C340.709255,311.221276,341.378221,311.659448,342.08,312.04C342.34,313.04,342.58,314.04,342.82,315.04C341.790661,315.42644,340.669248,315.496093,339.6,315.24C338.204413,314.837317,337.027311,313.894195,336.33,312.62C336.25,312.46,335.99,312.62,336.08,312.74C336.76414,313.924597,337.818034,314.852024,339.08,315.38C340.316083,315.832488,341.668247,315.857137,342.92,315.45C343.19,316.59,343.45,317.74,343.7,318.88C342.542215,318.719497,341.396362,318.482309,340.27,318.17C338.608442,317.617867,336.987777,316.949552,335.42,316.17C335.25,316.11,335.14,316.37,335.31,316.43C336.794998,317.188289,338.324451,317.856172,339.89,318.43C341.159549,318.853059,342.470103,319.141314,343.8,319.29L343.8,319.47C343.775844,319.513454,343.770737,319.564964,343.78589,319.612315C343.801042,319.659667,343.835105,319.698642,343.88,319.72C344.13,320.81,344.37,321.91,344.63,323.01C344.641933,323.077762,344.658642,323.144595,344.68,323.21C341.86,323.21,337.53,323,335.97,320.45C335.927128,320.392838,335.857017,320.362889,335.786077,320.371436C335.715137,320.379983,335.654145,320.425727,335.626077,320.491436C335.598009,320.557145,335.607128,320.632838,335.65,320.69C337.76,323.42,341.74,323.21,344.82,323.8C345.12,325.03,345.43,326.26,345.77,327.49C344.040623,327.715143,342.285534,327.644128,340.58,327.28C339.01,326.9,336.88,326.56,335.71,325.39C335.71,325.39,335.62,325.39,335.65,325.45C336.79,326.63,338.65,326.91,340.19,327.38C342.014405,328.048258,343.971255,328.274443,345.9,328.04C345.906369,328.096291,345.930948,328.148961,345.97,328.19L346.63,330.52C343.71,331.61,338.77,331.31,336.33,329.84C336.33,329.84,336.33,329.84,336.33,329.84C338.069719,330.762218,340.037878,331.164875,342,331C343.579157,331.152482,345.1729,331.010062,346.7,330.58C347.12,332.01,347.55,333.43,347.97,334.86C346.53,334.97,345.13,335.36,343.7,335.44C341.604794,335.516624,339.53711,334.94382,337.78,333.8C337.67,333.74,337.55,333.89,337.66,333.96C341.06,336.16,344.29,335.76,348.12,335.39C348.47,336.57,348.81,337.74,349.12,338.92C346.18,339.65,341.93,339.63,339.48,337.92C339.40578,337.880971,339.314186,337.901892,339.264272,337.969276C339.214358,338.03666,339.221036,338.130374,339.28,338.19C340.886555,339.174289,342.747005,339.664613,344.63,339.6C346.169126,339.79655,347.731156,339.711841,349.24,339.35C349.235702,339.389885,349.235702,339.430115,349.24,339.47Q349.93,342.02,350.51,344.59C347.15,345.24,344.17,343.91,341.01,342.85C340.79,342.77,340.65,343.1,340.87,343.18C344.12,344.34,347.15,345.73,350.62,345.1C350.94,346.49,351.23,347.9,351.51,349.3C348.458737,349.714524,345.353397,349.19871,342.6,347.82C342.42,347.73,342.3,348.03,342.48,348.12C345.297509,349.561862,348.470442,350.162428,351.62,349.85Q352.07,352.11,352.49,354.38C349.700316,355.064035,346.753728,354.629763,344.28,353.17C344.22,353.17,344.17,353.25,344.23,353.28C346.6,354.61,349.85,355.91,352.59,354.94L352.86,356.38C352.91,356.68,352.96,356.97,353.02,357.27C350.80417,357.700275,348.523473,357.669638,346.32,357.18C346.292386,357.18,346.27,357.202386,346.27,357.23C346.27,357.257614,346.292386,357.28,346.32,357.28C348.524238,357.919652,350.841643,358.069823,353.11,357.72C353.27,358.63,353.42,359.58,353.59,360.53C352.986013,360.505351,352.381029,360.525406,351.78,360.59C350.722121,360.641916,349.662136,360.547696,348.63,360.31C348.53,360.31,348.49,360.45,348.63,360.47C349.549476,360.728363,350.49578,360.879369,351.45,360.92C352.2,360.86,352.95,360.92,353.69,360.92C354.35,364.71,355.22,368.67,357.16,371.7C357.6,372.38,358.89,372.01,358.72,371.15C358.021903,368.537214,357.15679,365.971938,356.13,363.47Z" fill="rgb(116,125,237)" stroke="none" stroke-width="1"/><path id="program-icon-final-path49" d="M377.42,328.42C377.88,338.93,382.8,355.79,370.27,361.82C366.89,363.45,362.83,361.82,360.05,359.54C356.41,356.54,353.78,348.86,352.7,344.37C351.84,340.81,352.05,336.55,351.53,332.87C350.98,328.87,350.34,324.94,349.81,320.96C347.92,306.62,352.25,293.11,362.81,283.05C364.91,287.38,368.06,290.7,371.09,294.6C372.491065,296.3872,373.757863,298.275697,374.88,300.25C376.83,303.71,376.56,307.77,376.56,311.56C376.54,317.15,377.17,322.82,377.42,328.42Z" fill="url(#program-icon-final-path49-fill)" stroke="none" stroke-width="1"/><path id="program-icon-final-path50" d="M368.12,362.72C368,361.86,367.89,361,367.79,360.13C369.364356,359.545433,370.783963,358.608151,371.94,357.39C373.848007,355.577349,375.457829,353.474792,376.71,351.16C376.78,351.04,376.58,350.92,376.5,351.03C375.142383,353.049569,373.525198,354.881929,371.69,356.48C370.497483,357.589006,369.150055,358.518731,367.69,359.24C367.58,358.24,367.48,357.17,367.39,356.13C368.99,355.51,370.22,354.05,371.39,352.88C373.310605,350.811574,375.069134,348.598369,376.65,346.26C374.01,349.42,371.26,353.66,367.36,355.42C367.27,354.12,367.18,352.82,367.13,351.52C367.13,351.45,367.13,351.38,367.13,351.31C371.55,348.92,373.81,344.41,376.67,340.5C376.72,340.44,376.67,340.35,376.58,340.42C373.72,344.08,371.17,348.09,367.11,350.54C367.04,348.68,366.99,346.81,366.95,344.95C370.721316,342.355457,373.742675,338.813293,375.71,334.68C375.71,334.61,375.64,334.55,375.6,334.62C373.32,338.62,370.38,341.33,366.93,344.15C366.88,342.31,366.83,340.47,366.76,338.62C368.38,337.25,370.19,336.2,371.59,334.62C373.014613,333.051832,374.100558,331.206746,374.78,329.2C374.784763,329.156655,374.757768,329.11613,374.715934,329.103826C374.674099,329.091522,374.629462,329.110978,374.61,329.15C373.09,333.15,369.75,335.15,366.73,337.86C366.65,336.14,366.56,334.43,366.43,332.71C369.77,329.59,373.49,326.55,374.65,321.89C373.27,326.24,369.65,328.89,366.43,331.89C366.43,331.58,366.38,331.28,366.35,330.97C366.2,329.39,366.04,327.8,365.87,326.22C367.863437,324.716042,369.702474,323.017696,371.36,321.15C372.668715,319.955798,373.708394,318.496838,374.41,316.87C374.4169,316.829269,374.395185,316.789071,374.357338,316.772513C374.319491,316.755955,374.275231,316.767289,374.25,316.8C372.92,320.31,368.79,323.19,365.8,325.54L365.29,320.74C368.45,317.54,372.54,315.18,373.81,310.52C373.811679,310.46638,373.777565,310.418159,373.726443,310.401893C373.675322,310.385627,373.619615,310.405268,373.59,310.45C372.15,314.77,368.25,316.98,365.21,320Q365.04,318.51,364.91,317C368.57,314.49,372.41,309.93,373.61,305.74C373.618844,305.652191,373.56606,305.569853,373.482578,305.541231C373.399096,305.512608,373.306895,305.545238,373.26,305.62C371.559838,309.906413,368.626018,313.591959,364.83,316.21C364.68,314.6,364.54,313,364.43,311.38C364.436171,311.33019,364.436171,311.27981,364.43,311.23C366.087823,310.066099,367.590006,308.694979,368.9,307.15C370.573784,305.58316,371.855036,303.644152,372.64,301.49C372.646633,301.394201,372.584243,301.307208,372.491376,301.28277C372.398509,301.258331,372.301381,301.303345,372.26,301.39C371.26,305.04,367.56,308.26,364.34,310.39C364.34,309.8,364.26,309.22,364.23,308.63L364.11,305.98C365.3,304.62,367.01,303.68,368.19,302.26C369.188395,301.006573,370.075115,299.668127,370.84,298.26C370.92,298.13,370.71,298,370.63,298.13C369.570714,299.904039,368.283038,301.531285,366.8,302.97C365.94,303.76,364.89,304.35,364.07,305.17Q363.98,303.01,363.86,300.85L363.91,300.85L363.96,300.85C364.052225,300.852555,364.13775,300.802017,364.18,300.72C366.02,299.72,367.09,297.66,368.05,295.89C367.066695,297.656891,365.699858,299.180914,364.05,300.35L364.05,300.35L363.91,300.35C363.84,299.18,363.76,298,363.66,296.84C363.727992,296.815279,363.783218,296.764305,363.813297,296.698507C363.843376,296.63271,363.845791,296.557594,363.82,296.49C364.668907,295.503563,365.422285,294.43879,366.07,293.31C366.12,293.22,366,293.14,365.95,293.22C365.263987,294.218461,364.472789,295.140408,363.59,295.97C363.380948,293.554373,363.047169,291.151166,362.59,288.77C362.59,288.55,362.22,288.63,362.25,288.85C362.62,291.17,362.86,293.5,363.03,295.85C361.513452,294.777971,360.142057,293.514136,358.95,292.09C358.89,292.01,358.77,292.09,358.82,292.16C359.432253,293.053706,360.150855,293.869689,360.96,294.59C361.613059,295.339706,362.328998,296.032226,363.1,296.66C363.18,297.91,363.25,299.16,363.3,300.42C360.076207,301.053714,356.901364,299.123652,355.98,295.97C355.91,295.76,355.57,295.85,355.64,296.06C356.190468,297.651009,357.24342,299.019846,358.64,299.96C360.03286,300.808225,361.671578,301.160637,363.29,300.96C363.35,302.41,363.4,303.86,363.45,305.31C362.082581,304.846565,360.746475,304.295421,359.45,303.66C357.37,302.71,355.92,301.3,354.02,300.13C353.939919,300.077533,353.832467,300.099919,353.78,300.18C353.727533,300.260081,353.749919,300.367533,353.83,300.42C355.62,301.56,356.99,302.95,358.93,303.89C360.377393,304.69815,361.905808,305.351749,363.49,305.84L363.49,306.07L363.49,306.12C363.409902,306.207811,363.409902,306.342189,363.49,306.43C363.49,307.82,363.58,309.22,363.64,310.61C363.64,310.69,363.64,310.78,363.64,310.87C360.21,310.24,355,308.95,353.69,305.49C353.661968,305.393889,353.579301,305.32377,353.479904,305.311795C353.380507,305.29982,353.283551,305.348297,353.233494,305.435C353.183436,305.521703,353.189931,305.629908,353.25,305.71C355.18,309.52,360.07,310.18,363.68,311.61C363.75,313.18,363.86,314.75,363.98,316.32C361.824328,316.200929,359.705931,315.706862,357.72,314.86C355.9,314.04,353.39,313.13,352.23,311.43C352.23,311.38,352.12,311.43,352.16,311.49C353.26,313.19,355.5,313.98,357.22,314.89C359.283218,316.12658,361.610151,316.85653,364.01,317.02C364.011321,317.089591,364.028417,317.157975,364.06,317.22C364.14,318.22,364.23,319.22,364.33,320.22C360.52,320.88,354.58,319.36,351.96,317.02C351.96,317.02,351.96,317.02,351.96,317.02C353.810394,318.69054,356.113777,319.776122,358.58,320.14C360.463271,320.695394,362.434101,320.892138,364.39,320.72Q364.66,323.47,364.94,326.22C363.16,326.02,361.38,326.22,359.61,325.93C357.04927,325.534471,354.671957,324.361523,352.8,322.57C352.68,322.47,352.5,322.63,352.62,322.74C356.24,326.2,360.26,326.46,365,326.9C365.15,328.4,365.29,329.9,365.42,331.42C361.68,331.63,356.52,330.62,353.94,327.98C353.75,327.79,353.43,328.07,353.62,328.27C355.34363,329.850879,357.491665,330.893614,359.8,331.27C361.43,331.63,363.72,332.33,365.47,332.03C365.47,332.03,365.47,332.13,365.47,332.18C365.65,334.35,365.76,336.52,365.83,338.7C361.6,338.7,358.28,336.41,354.69,334.38C354.44,334.24,354.2,334.61,354.45,334.75C358.13,336.91,361.45,339.3,365.86,339.34C365.86,341.11,365.95,342.88,365.96,344.66C362.155397,344.454244,358.500538,343.109367,355.47,340.8C355.27,340.64,355.06,340.98,355.26,341.13C358.351431,343.534643,362.069177,344.999525,365.97,345.35C365.97,347.25,365.97,349.16,365.97,351.06C362.35,351.41,359.12,349.91,356.28,347.69C356.21,347.64,356.12,347.75,356.18,347.81C358.76,349.98,362.42,352.31,365.97,351.76C365.97,352.36,365.97,352.97,365.97,353.58C365.97,353.95,365.97,354.32,365.97,354.7C363.178487,354.705846,360.415247,354.140948,357.85,353.04C357.78,353.04,357.73,353.11,357.8,353.15C360.333084,354.4413,363.118473,355.161542,365.96,355.26C365.96,356.41,365.9,357.59,365.88,358.79C365.152615,358.62082,364.414066,358.503856,363.67,358.44C362.371009,358.254138,361.102953,357.894239,359.9,357.37C359.78,357.37,359.7,357.51,359.82,357.55C360.879928,358.079694,361.997273,358.485696,363.15,358.76C364.07,358.86,364.97,359.07,365.88,359.22C365.81,363.99,365.95,369,367.6,373.14C367.97,374.06,369.6,373.9,369.6,372.83C369.44,369.29,368.56,366,368.12,362.72Z" fill="rgb(116,125,237)" stroke="none" stroke-width="1"/><polygon id="program-icon-final-polygon9" points="384.33,366.66 383.87,375.2 383.14,388.51 381.95,410.36 352.36,410.36 351.17,388.51 350.45,375.2 349.98,366.66 384.33,366.66" fill="rgb(149,168,181)" stroke="none" stroke-width="1"/><polygon id="program-icon-final-polygon10" points="383.87,375.2 383.77,376.92 383.68,378.69 383.14,388.51 351.17,388.51 350.64,378.69 350.54,376.92 350.45,375.2 383.87,375.2" fill="rgb(165,183,198)" stroke="none" stroke-width="1"/><polygon id="program-icon-final-polygon11" points="383.77,376.92 383.68,378.69 350.64,378.69 350.54,376.92 383.77,376.92" fill="rgb(149,168,181)" stroke="none" stroke-width="1"/></g></g></svg>